<svg width="303" height="40" viewBox="0 0 303 40" fill="none" xmlns="http://www.w3.org/2000/svg">
<path d="M26.2784 10H22.5795C22.3608 8.93608 21.978 8.00142 21.4311 7.19602C20.8942 6.39062 20.2379 5.71449 19.4624 5.16761C18.6967 4.6108 17.8466 4.19318 16.9119 3.91477C15.9773 3.63636 15.0028 3.49716 13.9886 3.49716C12.1392 3.49716 10.4638 3.96449 8.96236 4.89915C7.47088 5.83381 6.28267 7.21094 5.39773 9.03054C4.52273 10.8501 4.08523 13.0824 4.08523 15.7273C4.08523 18.3722 4.52273 20.6044 5.39773 22.424C6.28267 24.2436 7.47088 25.6207 8.96236 26.5554C10.4638 27.4901 12.1392 27.9574 13.9886 27.9574C15.0028 27.9574 15.9773 27.8182 16.9119 27.5398C17.8466 27.2614 18.6967 26.8487 19.4624 26.3018C20.2379 25.745 20.8942 25.0639 21.4311 24.2585C21.978 23.4432 22.3608 22.5085 22.5795 21.4545H26.2784C26 23.0156 25.4929 24.4126 24.7571 25.6456C24.0213 26.8786 23.1065 27.9276 22.0128 28.7926C20.919 29.6477 19.6911 30.299 18.3288 30.7464C16.9766 31.1939 15.5298 31.4176 13.9886 31.4176C11.3835 31.4176 9.06676 30.7812 7.03835 29.5085C5.00994 28.2358 3.41406 26.4261 2.25071 24.0795C1.08736 21.733 0.505682 18.9489 0.505682 15.7273C0.505682 12.5057 1.08736 9.72159 2.25071 7.375C3.41406 5.02841 5.00994 3.21875 7.03835 1.94602C9.06676 0.673295 11.3835 0.0369307 13.9886 0.0369307C15.5298 0.0369307 16.9766 0.260652 18.3288 0.708096C19.6911 1.15554 20.919 1.81179 22.0128 2.67685C23.1065 3.53196 24.0213 4.57599 24.7571 5.80895C25.4929 7.03196 26 8.42898 26.2784 10ZM35.2981 0.454545V31H31.7782V0.454545H35.2981ZM51.3501 31.4773C49.1428 31.4773 47.2386 30.9901 45.6378 30.0156C44.0469 29.0312 42.8189 27.6591 41.9538 25.8991C41.0987 24.1293 40.6712 22.071 40.6712 19.7244C40.6712 17.3778 41.0987 15.3097 41.9538 13.5199C42.8189 11.7202 44.022 10.3182 45.5632 9.31392C47.1143 8.29972 48.924 7.79261 50.9922 7.79261C52.1854 7.79261 53.3636 7.99148 54.527 8.3892C55.6903 8.78693 56.7493 9.43324 57.7038 10.3281C58.6584 11.2131 59.419 12.3864 59.9858 13.848C60.5526 15.3097 60.8359 17.1094 60.8359 19.2472V20.7386H43.1768V17.696H57.2564C57.2564 16.4034 56.9979 15.25 56.4808 14.2358C55.9737 13.2216 55.2479 12.4212 54.3033 11.8345C53.3686 11.2479 52.2649 10.9545 50.9922 10.9545C49.5902 10.9545 48.3771 11.3026 47.353 11.9986C46.3388 12.6847 45.5582 13.5795 45.0114 14.6832C44.4645 15.7869 44.1911 16.9702 44.1911 18.233V20.2614C44.1911 21.9915 44.4893 23.4581 45.0859 24.6612C45.6925 25.8544 46.5327 26.7642 47.6065 27.3906C48.6804 28.0071 49.9283 28.3153 51.3501 28.3153C52.2749 28.3153 53.1101 28.1861 53.8558 27.9276C54.6115 27.6591 55.2628 27.2614 55.8097 26.7344C56.3565 26.1974 56.7791 25.5312 57.0774 24.7358L60.478 25.6903C60.12 26.8438 59.5185 27.858 58.6733 28.733C57.8281 29.598 56.7841 30.2741 55.5412 30.7614C54.2983 31.2386 52.9013 31.4773 51.3501 31.4773ZM72.9318 31.5369C71.4801 31.5369 70.1626 31.2635 68.9794 30.7166C67.7962 30.1598 66.8565 29.3594 66.1605 28.3153C65.4645 27.2614 65.1165 25.9886 65.1165 24.4972C65.1165 23.1847 65.375 22.1207 65.892 21.3054C66.4091 20.4801 67.1001 19.8338 67.9652 19.3665C68.8303 18.8991 69.7848 18.5511 70.8288 18.3224C71.8828 18.0838 72.9418 17.8949 74.0057 17.7557C75.3977 17.5767 76.5263 17.4425 77.3913 17.353C78.2663 17.2536 78.9027 17.0895 79.3004 16.8608C79.7081 16.6321 79.9119 16.2344 79.9119 15.6676V15.5483C79.9119 14.0767 79.5092 12.9332 78.7038 12.1179C77.9084 11.3026 76.7003 10.8949 75.0795 10.8949C73.3991 10.8949 72.0817 11.2628 71.1271 11.9986C70.1726 12.7344 69.5014 13.5199 69.1136 14.3551L65.7727 13.1619C66.3693 11.7699 67.1648 10.6861 68.1591 9.91051C69.1634 9.125 70.2571 8.57812 71.4403 8.26989C72.6335 7.9517 73.8068 7.79261 74.9602 7.79261C75.696 7.79261 76.5412 7.8821 77.4957 8.06108C78.4602 8.23011 79.3899 8.5831 80.2848 9.12003C81.1896 9.65696 81.9403 10.4673 82.5369 11.5511C83.1335 12.6349 83.4318 14.0866 83.4318 15.9062V31H79.9119V27.8977H79.733C79.4943 28.3949 79.0966 28.9268 78.5398 29.4936C77.983 30.0604 77.2422 30.5426 76.3175 30.9403C75.3928 31.3381 74.2642 31.5369 72.9318 31.5369ZM73.4688 28.375C74.8608 28.375 76.0341 28.1016 76.9886 27.5547C77.9531 27.0078 78.679 26.3018 79.1662 25.4368C79.6634 24.5717 79.9119 23.6619 79.9119 22.7074V19.4858C79.7628 19.6648 79.4347 19.8288 78.9276 19.978C78.4304 20.1172 77.8537 20.2415 77.1974 20.3509C76.5511 20.4503 75.9197 20.5398 75.3033 20.6193C74.6967 20.6889 74.2045 20.7486 73.8267 20.7983C72.9119 20.9176 72.0568 21.1115 71.2614 21.38C70.4759 21.6385 69.8395 22.0312 69.3523 22.5582C68.875 23.0753 68.6364 23.7812 68.6364 24.6761C68.6364 25.8991 69.0888 26.8239 69.9936 27.4503C70.9084 28.0668 72.0668 28.375 73.4688 28.375ZM93.3762 17.2188V31H89.8564V8.09091H93.2569V11.6705H93.5552C94.0922 10.5071 94.9075 9.57244 96.0012 8.86648C97.095 8.15057 98.5069 7.79261 100.237 7.79261C101.788 7.79261 103.145 8.1108 104.309 8.74716C105.472 9.37358 106.377 10.3281 107.023 11.6108C107.67 12.8835 107.993 14.4943 107.993 16.4432V31H104.473V16.6818C104.473 14.8821 104.006 13.4801 103.071 12.4759C102.136 11.4616 100.854 10.9545 99.2228 10.9545C98.0993 10.9545 97.095 11.1982 96.2101 11.6854C95.335 12.1726 94.644 12.8835 94.1369 13.8182C93.6298 14.7528 93.3762 15.8864 93.3762 17.2188ZM126.714 31V0.454545H137.036C139.432 0.454545 141.391 0.887073 142.912 1.75213C144.443 2.60724 145.577 3.76562 146.312 5.22727C147.048 6.68892 147.416 8.3196 147.416 10.1193C147.416 11.919 147.048 13.5547 146.312 15.0263C145.587 16.4979 144.463 17.6712 142.942 18.5462C141.42 19.4112 139.472 19.8438 137.095 19.8438H129.697V16.5625H136.976C138.616 16.5625 139.934 16.2791 140.928 15.7124C141.923 15.1456 142.643 14.38 143.091 13.4155C143.548 12.4411 143.777 11.3423 143.777 10.1193C143.777 8.89631 143.548 7.80256 143.091 6.83807C142.643 5.87358 141.918 5.1179 140.913 4.57102C139.909 4.0142 138.577 3.73579 136.916 3.73579H130.413V31H126.714ZM156.417 0.454545V31H152.897V0.454545H156.417ZM169.606 31.5369C168.154 31.5369 166.836 31.2635 165.653 30.7166C164.47 30.1598 163.53 29.3594 162.834 28.3153C162.138 27.2614 161.79 25.9886 161.79 24.4972C161.79 23.1847 162.049 22.1207 162.566 21.3054C163.083 20.4801 163.774 19.8338 164.639 19.3665C165.504 18.8991 166.459 18.5511 167.503 18.3224C168.557 18.0838 169.616 17.8949 170.68 17.7557C172.072 17.5767 173.2 17.4425 174.065 17.353C174.94 17.2536 175.577 17.0895 175.974 16.8608C176.382 16.6321 176.586 16.2344 176.586 15.6676V15.5483C176.586 14.0767 176.183 12.9332 175.378 12.1179C174.582 11.3026 173.374 10.8949 171.753 10.8949C170.073 10.8949 168.756 11.2628 167.801 11.9986C166.846 12.7344 166.175 13.5199 165.787 14.3551L162.447 13.1619C163.043 11.7699 163.839 10.6861 164.833 9.91051C165.837 9.125 166.931 8.57812 168.114 8.26989C169.307 7.9517 170.481 7.79261 171.634 7.79261C172.37 7.79261 173.215 7.8821 174.17 8.06108C175.134 8.23011 176.064 8.5831 176.959 9.12003C177.863 9.65696 178.614 10.4673 179.211 11.5511C179.807 12.6349 180.106 14.0866 180.106 15.9062V31H176.586V27.8977H176.407C176.168 28.3949 175.77 28.9268 175.214 29.4936C174.657 30.0604 173.916 30.5426 172.991 30.9403C172.067 31.3381 170.938 31.5369 169.606 31.5369ZM170.143 28.375C171.535 28.375 172.708 28.1016 173.662 27.5547C174.627 27.0078 175.353 26.3018 175.84 25.4368C176.337 24.5717 176.586 23.6619 176.586 22.7074V19.4858C176.437 19.6648 176.108 19.8288 175.601 19.978C175.104 20.1172 174.528 20.2415 173.871 20.3509C173.225 20.4503 172.594 20.5398 171.977 20.6193C171.371 20.6889 170.878 20.7486 170.501 20.7983C169.586 20.9176 168.731 21.1115 167.935 21.38C167.15 21.6385 166.513 22.0312 166.026 22.5582C165.549 23.0753 165.31 23.7812 165.31 24.6761C165.31 25.8991 165.763 26.8239 166.667 27.4503C167.582 28.0668 168.741 28.375 170.143 28.375ZM187.977 39.5909C187.38 39.5909 186.848 39.5412 186.381 39.4418C185.914 39.3523 185.591 39.2628 185.412 39.1733L186.306 36.071C187.162 36.2898 187.917 36.3693 188.574 36.3097C189.23 36.25 189.811 35.9567 190.319 35.4297C190.836 34.9126 191.308 34.0724 191.735 32.9091L192.392 31.1193L183.92 8.09091H187.738L194.062 26.3466H194.301L200.625 8.09091H204.443L194.718 34.3409C194.281 35.5241 193.739 36.5036 193.093 37.2791C192.446 38.0646 191.696 38.6463 190.841 39.0241C189.995 39.402 189.041 39.5909 187.977 39.5909ZM215.133 31.5369C213.681 31.5369 212.364 31.2635 211.181 30.7166C209.997 30.1598 209.058 29.3594 208.362 28.3153C207.666 27.2614 207.318 25.9886 207.318 24.4972C207.318 23.1847 207.576 22.1207 208.093 21.3054C208.61 20.4801 209.301 19.8338 210.166 19.3665C211.031 18.8991 211.986 18.5511 213.03 18.3224C214.084 18.0838 215.143 17.8949 216.207 17.7557C217.599 17.5767 218.727 17.4425 219.593 17.353C220.468 17.2536 221.104 17.0895 221.502 16.8608C221.909 16.6321 222.113 16.2344 222.113 15.6676V15.5483C222.113 14.0767 221.71 12.9332 220.905 12.1179C220.11 11.3026 218.901 10.8949 217.281 10.8949C215.6 10.8949 214.283 11.2628 213.328 11.9986C212.374 12.7344 211.703 13.5199 211.315 14.3551L207.974 13.1619C208.57 11.7699 209.366 10.6861 210.36 9.91051C211.365 9.125 212.458 8.57812 213.642 8.26989C214.835 7.9517 216.008 7.79261 217.161 7.79261C217.897 7.79261 218.742 7.8821 219.697 8.06108C220.661 8.23011 221.591 8.5831 222.486 9.12003C223.391 9.65696 224.142 10.4673 224.738 11.5511C225.335 12.6349 225.633 14.0866 225.633 15.9062V31H222.113V27.8977H221.934C221.695 28.3949 221.298 28.9268 220.741 29.4936C220.184 30.0604 219.443 30.5426 218.519 30.9403C217.594 31.3381 216.465 31.5369 215.133 31.5369ZM215.67 28.375C217.062 28.375 218.235 28.1016 219.19 27.5547C220.154 27.0078 220.88 26.3018 221.367 25.4368C221.865 24.5717 222.113 23.6619 222.113 22.7074V19.4858C221.964 19.6648 221.636 19.8288 221.129 19.978C220.632 20.1172 220.055 20.2415 219.399 20.3509C218.752 20.4503 218.121 20.5398 217.504 20.6193C216.898 20.6889 216.406 20.7486 216.028 20.7983C215.113 20.9176 214.258 21.1115 213.463 21.38C212.677 21.6385 212.041 22.0312 211.553 22.5582C211.076 23.0753 210.838 23.7812 210.838 24.6761C210.838 25.8991 211.29 26.8239 212.195 27.4503C213.11 28.0668 214.268 28.375 215.67 28.375ZM235.577 17.2188V31H232.058V8.09091H235.458V11.6705H235.756C236.293 10.5071 237.109 9.57244 238.202 8.86648C239.296 8.15057 240.708 7.79261 242.438 7.79261C243.989 7.79261 245.347 8.1108 246.51 8.74716C247.673 9.37358 248.578 10.3281 249.224 11.6108C249.871 12.8835 250.194 14.4943 250.194 16.4432V31H246.674V16.6818C246.674 14.8821 246.207 13.4801 245.272 12.4759C244.337 11.4616 243.055 10.9545 241.424 10.9545C240.3 10.9545 239.296 11.1982 238.411 11.6854C237.536 12.1726 236.845 12.8835 236.338 13.8182C235.831 14.7528 235.577 15.8864 235.577 17.2188ZM265.276 31.4773C263.367 31.4773 261.682 30.995 260.22 30.0305C258.759 29.0561 257.615 27.6839 256.79 25.9141C255.965 24.1342 255.552 22.0312 255.552 19.6051C255.552 17.1989 255.965 15.1108 256.79 13.3409C257.615 11.571 258.764 10.2038 260.235 9.23935C261.707 8.27486 263.407 7.79261 265.336 7.79261C266.828 7.79261 268.006 8.04119 268.871 8.53835C269.746 9.02557 270.412 9.58239 270.869 10.2088C271.337 10.8253 271.7 11.3324 271.958 11.7301H272.257V0.454545H275.776V31H272.376V27.4801H271.958C271.7 27.8977 271.332 28.4247 270.855 29.0611C270.377 29.6875 269.696 30.2493 268.811 30.7464C267.926 31.2337 266.748 31.4773 265.276 31.4773ZM265.754 28.3153C267.166 28.3153 268.359 27.9474 269.333 27.2116C270.308 26.4659 271.048 25.4368 271.556 24.1243C272.063 22.8018 272.316 21.2756 272.316 19.5455C272.316 17.8352 272.068 16.3388 271.57 15.0561C271.073 13.7635 270.338 12.7592 269.363 12.0433C268.389 11.3175 267.186 10.9545 265.754 10.9545C264.262 10.9545 263.019 11.3374 262.025 12.103C261.041 12.8587 260.3 13.8878 259.803 15.1903C259.316 16.483 259.072 17.9347 259.072 19.5455C259.072 21.1761 259.32 22.6577 259.818 23.9901C260.325 25.3125 261.07 26.3665 262.055 27.152C263.049 27.9276 264.282 28.3153 265.754 28.3153ZM292.019 31.4773C289.95 31.4773 288.136 30.9851 286.575 30.0007C285.024 29.0163 283.811 27.6392 282.936 25.8693C282.07 24.0994 281.638 22.0312 281.638 19.6648C281.638 17.2784 282.07 15.1953 282.936 13.4155C283.811 11.6357 285.024 10.2536 286.575 9.26918C288.136 8.2848 289.95 7.79261 292.019 7.79261C294.087 7.79261 295.896 8.2848 297.448 9.26918C299.009 10.2536 300.222 11.6357 301.087 13.4155C301.962 15.1953 302.399 17.2784 302.399 19.6648C302.399 22.0312 301.962 24.0994 301.087 25.8693C300.222 27.6392 299.009 29.0163 297.448 30.0007C295.896 30.9851 294.087 31.4773 292.019 31.4773ZM292.019 28.3153C293.59 28.3153 294.882 27.9126 295.896 27.1072C296.911 26.3018 297.661 25.2429 298.149 23.9304C298.636 22.6179 298.879 21.196 298.879 19.6648C298.879 18.1335 298.636 16.7067 298.149 15.3842C297.661 14.0618 296.911 12.9929 295.896 12.1776C294.882 11.3622 293.59 10.9545 292.019 10.9545C290.448 10.9545 289.155 11.3622 288.141 12.1776C287.127 12.9929 286.376 14.0618 285.889 15.3842C285.401 16.7067 285.158 18.1335 285.158 19.6648C285.158 21.196 285.401 22.6179 285.889 23.9304C286.376 25.2429 287.127 26.3018 288.141 27.1072C289.155 27.9126 290.448 28.3153 292.019 28.3153Z" fill="url(#paint0_linear_206_3)" fill-opacity="0.9"/>
<defs>
<linearGradient id="paint0_linear_206_3" x1="151.5" y1="0" x2="151.5" y2="32" gradientUnits="userSpaceOnUse">
<stop stop-color="#805AD5"/>
<stop offset="1" stop-color="#B794F4"/>
</linearGradient>
</defs>
</svg>
